<svg width="150" height="43" viewBox="0 0 150 43" fill="none" xmlns="http://www.w3.org/2000/svg">
<path d="M78.516 0H71.494V26.421H78.516V0Z" fill="#004C98"/>
<path d="M109.027 0V5.502H117.861V26.421H124.883V5.502H133.717V0H109.027Z" fill="#004C98"/>
<path d="M99.246 10.459H93.377C91.818 10.459 90.555 9.813 90.555 7.98C90.555 6.144 91.819 5.502 93.377 5.502H105.998V0H92.543C87.522 0 83.449 2.898 83.449 7.979C83.449 13.065 87.521 15.959 92.543 15.959H98.582C100.141 15.959 101.402 16.604 101.402 18.438C101.402 20.275 100.14 20.916 98.582 20.916H84.424V26.421H99.246C104.267 26.421 108.34 23.529 108.34 18.444C108.34 13.364 104.268 10.459 99.246 10.459Z" fill="#004C98"/>
<path d="M50.114 0L40.182 23.776L30.714 13.21L42.553 0H34.533L23.313 12.542V0H16.292V26.421H23.313V13.878L34.533 26.421H46.215L54.257 6.495L60.096 21.146H50.813L53.017 26.421H69.437L58.398 0H50.114Z" fill="#004C98"/>
<mask id="mask0_1_18" style="mask-type:luminance" maskUnits="userSpaceOnUse" x="0" y="32" width="151" height="11">
<path d="M0 37.52C24.5 41 49.542 42.804 75.004 42.804C100.469 42.804 125.508 41 150.01 37.52C125.508 34.038 100.469 32.235 75.004 32.235C49.542 32.234 24.5 34.037 0 37.52Z" fill="white"/>
</mask>
<g mask="url(#mask0_1_18)">
<path d="M150.01 32.234H0V42.803H150.01V32.234Z" fill="url(#paint0_linear_1_18)"/>
</g>
<defs>
<linearGradient id="paint0_linear_1_18" x1="0" y1="32.234" x2="15001" y2="32.234" gradientUnits="userSpaceOnUse">
<stop stop-color="#4DBEEE"/>
<stop offset="0.9" stop-color="#0066B3"/>
<stop offset="1" stop-color="#0066B3"/>
</linearGradient>
</defs>
</svg>
